<?xml version="1.0" standalone="no"?>
<!DOCTYPE svg PUBLIC "-//W3C//DTD SVG 20010904//EN"
 "http://www.w3.org/TR/2001/REC-SVG-20010904/DTD/svg10.dtd">
<svg version="1.0" xmlns="http://www.w3.org/2000/svg"
 width="92.000000pt" height="92.000000pt" viewBox="0 0 92.000000 92.000000"
 preserveAspectRatio="xMidYMid meet">
<metadata>
Created by potrace 1.14, written by Peter Selinger 2001-2017
</metadata>
<g transform="translate(0.000000,92.000000) scale(0.100000,-0.100000)"
fill="#000000" stroke="none">
<path d="M260 885 c0 -32 -2 -35 -30 -35 l-30 0 0 -65 0 -65 30 0 c27 0 30 -3
30 -30 l0 -30 -65 0 -65 0 0 -35 c0 -33 -2 -35 -35 -35 l-35 0 0 -260 0 -260
35 0 c33 0 35 -2 35 -35 l0 -35 330 0 330 0 0 35 c0 33 2 35 35 35 l35 0 0
260 0 260 -35 0 c-33 0 -35 2 -35 35 l0 35 -65 0 -65 0 0 30 c0 27 3 30 30 30
l30 0 0 65 0 65 -30 0 c-28 0 -30 3 -30 35 l0 35 -200 0 -200 0 0 -35z m200
-65 l0 -30 100 0 100 0 0 -35 c0 -33 -2 -35 -35 -35 l-35 0 0 -65 0 -65 100 0
100 0 0 -260 0 -260 -330 0 -330 0 0 260 0 260 100 0 100 0 0 65 0 65 -35 0
c-33 0 -35 2 -35 35 l0 35 65 0 65 0 0 30 c0 28 3 30 35 30 32 0 35 -2 35 -30z"/>
<path d="M390 690 l0 -30 70 0 70 0 0 30 0 30 -70 0 -70 0 0 -30z"/>
<path d="M530 495 l0 -35 -70 0 -70 0 0 -165 0 -165 165 0 165 0 0 200 0 200
-95 0 -95 0 0 -35z"/>
<path d="M200 295 l0 -165 30 0 30 0 0 165 0 165 -30 0 -30 0 0 -165z"/>
</g>
</svg>
